<?xml version="1.0" encoding="utf-8"?>
<!-- Generator: Adobe Illustrator 21.1.0, SVG Export Plug-In . SVG Version: 6.00 Build 0)  -->
<svg version="1.0" id="Warstwa_1" xmlns="http://www.w3.org/2000/svg" xmlns:xlink="http://www.w3.org/1999/xlink" x="0px" y="0px"
	 viewBox="0 0 792 792" enable-background="new 0 0 792 792" xml:space="preserve">
<g>
	<path fill="#040404" d="M314.4,756c-4.7,0-10.7-0.4-15.2-3.9c-0.4,0.2-0.8,0.4-1.4,0.5c-2.2,0.8-4.6,1.2-6.9,1.2
		c-2.6,0-5.2-0.5-7.3-1.5c-1.2-0.5-1.4-0.5-1.9-0.5c-0.7,0-1.6,0-3.1-0.4c-5.3-1.1-9.7-4.8-12.9-10.8c-5-9.5-6.3-24.3-2.7-32.9
		c7.1-17.3,25.6-18.9,35.6-19.8c0.9-0.1,1.8-0.2,2.6-0.2c0.6-3.8,1.6-10,2.9-17.5c2.6-15.5,7.2-43.1,8-51c-0.8-0.3-1.6-0.6-2.3-0.9
		c-2.3-0.8-4.7-1.7-7.3-3c-11.7-5.8-21.2-13.3-28.3-22.5c-11.8-15.2-14.8-30-16.4-39.4c-1.7,3-3.7,5.8-6.9,6.5
		c-1.8,0.4-4,0.6-6.3,0.6c-2.4,0-10.5-0.3-14.5-3.8c-6.2-5.5-10-30-10.4-35.7c-0.5-7.1-0.4-14.3,0.3-21.4c0.3-3.2,0.7-6.2,1.3-9.6
		c0.8-4.3,1.6-5.5,3.7-7.8c0.2-0.3,0.5-0.5,0.8-0.9c3-3.4,4.9-5.8,6.2-7.6c4.1-5.4,5.3-6,13.2-6l2.5,0c0.7,0,1.5,0,2.4,0
		c1,0,2.1,0,3.1,0c0.5,0,1.1,0,1.5,0c0.3-7.9,1.6-17.1,14.5-18.5c0-2.1-0.2-4.8-0.3-6.6c-0.1-1.1-0.1-2-0.1-2.7
		c-0.1-3.3-0.1-5.7-0.1-7.5c0-1,0-2,0-2.6c-0.4-0.2-1-0.3-1.6-0.5c-1.5-0.5-3.6-1.2-6.5-2.3c-10.4-4.3-18.9-10.7-24.2-15.3
		c-6.2-5.4-12.8-11.4-18.3-19c0.8,17.5,4.6,81.9,4.7,83.7c0.3,6,0.7,12.7-8.8,14c-2.9,0.4-6.9,0.5-9.8,0.5c-2.4,0-4.8-0.1-6.8-0.2
		c-9.2-0.5-10.9-4.7-10.9-12.4c0-3.4,0.4-90.4,0-111.3c-5.6-1.4-9-2.9-13.5-6.7c-3.7-3-7.3-6.9-10.7-11.4
		c-7.2-9.4-10.9-15-11.6-28.7c-6.7-0.2-9.2-8.5-10.2-11.7c-0.9-3-1.5-5.6-2-8.9c-0.2-1.1-0.3-2.3-0.3-3.6c-0.1-1.5-0.2-3.6-0.5-4.4
		l-0.2-0.5v-9.4l0.2-0.5c0.2-0.9,0.6-5.6,0.9-8.4c0.2-2.2,0.3-4.1,0.5-5.2c7.1-54.9,34.2-100.5,72.6-122c1.4-0.8,2.4-1.3,3.2-1.7
		c1.5-0.7,1.5-0.7,3.2-4.6c1.6-3.8,3.7-7.8,5.3-10.8c0.7-1.3,1.7-2.9,2.6-4.4c0.2-0.4,0.5-0.8,0.7-1.2c-4.2-0.4-8.5-1.4-11.2-4.4
		c-2.1-2.3-2.9-5.4-2.5-9.3c1.6-17.1,19-27.5,26.4-31.2c4.1-2.1,8.1-3.3,11.4-4.2c-4.8-3.3-8-8.2-7.1-14.3c1-6.6,6.2-14.4,25-14.4
		c9.9,0,18.9,2.2,21.4,2.8c7.6,2,10.9,3.6,14,5.3c-0.4-2.6-0.2-5.4,1.2-8.8c2.3-5.6,6.3-8.3,12.1-8.3c0.7,0,1.5,0,2.2,0.1l0.4,0
		l1.1,0.4c6.8,2.6,8.9,3.6,12.6,10.1c1.4,2.4,2.4,5,3.4,7.6c0.6,1.7,1.1,3,1.5,4.1c0.4,1.2,0.8,2.3,1,2.7c0.3,0.1,0.9,0.3,1.5,0.5
		c1,0.3,2.4,0.8,4.2,1.5c2.7,1,5.2,2,7.7,3.2l1.1,0.5c2,0.9,4,1.9,6,2.9c0.8,0.4,1.6,0.9,2.5,1.4c0.7,0.4,1.4,0.8,2,1.2
		c4.5-4.2,9.6-7.5,19.2-7.5c0.1,0,0.2,0,0.3,0l2.5-3.6c0.4-0.6,0.7-1.2,1-1.7c1.5-2.4,2.9-4.8,5.8-4.8c2,0,3.6,1,6.9,3.1
		c1.4,0.9,88.5,52.5,89.3,53.1l1.3,0.9l0.1,1.6c0.1,1.5-0.2,3.2-0.4,4.7c-0.2,1.2-0.5,3.3-0.3,3.9c0.2,0.3,0.6,0.8,1,1.4
		c2.6,3.5,7.9,10.7,4.4,18.9c-0.6,1.3-1.2,2.3-1.9,3.1c0.7-0.2,1.4-0.5,2.1-0.6c5.6-1.4,11.8-2.1,18.3-2.1c16.6,0,32,4.5,42.1,8.3
		c16,6,25.3,12.9,37.7,22.7c26.9,21.3,50.5,69.2,57.8,103.3c0.3,1.5,0.7,4.3,1.2,7.6c0.5,3.2,1.2,8.1,1.5,9.2l0.3,0.6V309l-0.3,0.5
		l-0.6,3.3c-1.4,9.1-5.5,17.4-10.9,22.1c-0.5,0.4-0.5,0.4-0.5,2.2c0,0.7,0,1.6,0,2.6c-1.2,26.5-11.4,57.2-36.4,64.1
		c-7.6,2.1-14.9,3.1-21.6,3.1c-24.7,0-43.8-13.4-60.2-42.3c-0.9-1.6-1.8-3.5-2.6-5.4c-0.7-1.6-1.4-3.1-2.1-4.5c-0.3,0-0.5,0-0.8-0.1
		c-5.4-0.5-9-0.8-14.6-4.3c-2.1-1.3-4-2.9-5.7-4.4c-0.9,9.2-1.9,18-5.4,26.7c-4.2,10.5-9.2,15.1-12.6,17.7c0.1,0,0.2,0,0.3,0
		c3.1,0,6.4,0.1,9.8,0.8c9.3,1.9,12.8,6.2,14.9,8.8c0.4,0.5,0.9,1.1,1.2,1.3c2.7,0.5,5.3,0.8,7.8,1.2c4.5,0.6,9.1,1.3,14.2,2.5
		c14,3.4,33.1,8,39.8,25.2c0.5,1.4,0.8,2.9,1,4.2c0.1,0.6,0.2,1.2,0.3,1.8c0.7,0.4,1.4,0.8,2.2,1.1c0.9,0.4,1.8,0.9,2.7,1.4
		c7.3,4.2,12.4,8.2,16.3,12.6c11.5,13.3,9.6,34.4,8,53.1c-1.3,15.1-2.6,29.4,4,34.1c0.3,0.2,0.6,0.4,0.8,0.5
		c0.9,0.5,1.8,1.1,2.6,2.7l0.3,0.6l0.1,0.6c0.7,6.5-17.6,14.8-20.9,15.6c-2.2,0.5-4.2,0.8-6.2,0.8c-5,0-8.6-1.6-11.6-3.4
		c0.4,1.8,0.9,3.6,1.4,5.5c1.2,5,2.5,10.1,3.3,14.3c8.3,42.1,10.5,84.1,12.2,127.1c0,1.1,0.1,2.2,0.2,3.3c0.3,4.5,0.6,9.2-0.9,13.9
		c-1.7,5.2-4.6,9.2-8.8,11.6c-6,3.5-17.7,3.7-27.1,3.9c-2,0-3.8,0.1-5.4,0.1c-0.6,0-1.3,0.1-2,0.1c-1.4,0.1-3,0.2-4.4,0.2
		c-1.1,0-2.1,0-3-0.1c-3.1-0.4-4.5-1.2-5.8-2c-0.4-0.3-0.8-0.5-1.3-0.7c-0.4-0.2-1.5-0.3-2.4-0.4c-1.4-0.1-3-0.3-4.6-0.9
		c-2.5-1-3.5-1.7-5-3c-0.2,0-0.5,0.1-0.7,0.1c-0.9,0.2-1.9,0.4-3,0.4c-2.1,0-4-0.7-5.8-2.1c-9.4-7.3-6-29.3-5.8-30.2
		c2.1-13,9.9-20.9,22.6-23c-1.4-8-5.7-21-7.5-26.3c-2.6-7.8-5.5-16.4-8.4-23.6c-1.2,0.8-2.6,1.6-4.5,2.5c-1.5,0.7-3.2,1.3-4.9,1.9
		c-0.6,0.2-1.2,0.4-1.8,0.6c0.4,1.8,1,3.9,1.5,5.8c0.4,1.4,0.7,2.7,1,3.8c1.1,4.5,2.1,8.8,2.9,12.5c0.2,0.7,0.3,1.5,0.6,2.4
		c2.4,10.3,4.5,20.8,1,25.9c-6.6,9.5-17.3,23.1-33.7,30.3l-1.1,0.5c-3.8,1.7-7.8,3.5-12.1,3.5c-2.5,0-4.9-0.7-7.1-2
		c-0.6,0.3-1.6,0.8-2.9,1.1c-1.3,0.3-2.6,0.4-3.9,0.4c-8.7,0-16.1-6.6-19.7-12.3c-5.1-8-6.1-18.6-2.6-27.6
		c2.7-6.9,7.8-12.2,14.4-15.1l-14.5-25.6c-4.3,0.1-11.3,0.5-14,1c-0.6,2.2-0.7,7.8-0.7,10c0,1.2-0.1,2.3-0.1,3.1l-4,65.8
		c-0.4,6.6-1.4,10.8-5.6,15.1c-3.6,3.7-8.1,4.6-12.9,5.6l-1.4,0.3c-3.2,0.7-5.7,1.2-7.6,1.6c-1.9,0.4-3.6,0.7-4.5,1
		c-0.4,1.5-1.1,4.4-4.4,9.1c-6.7,9.7-16.9,10.5-26,10.5c-1.2,0-2.5,0-3.7,0c-1.2,0-2.5,0-3.8,0c-0.8,0-1.6,0-2.4,0
		c-1.7,0-3.3,0.1-5.1,0.2C319.1,755.9,316.7,756,314.4,756z"/>
	<path fill="#444446" d="M216.6,321.2c15.4,4.9,36.6-17.3,29.9-30.8c-3.2-6.6-9.8-8.1-11.4-10l-5.7-1.4
		C192.2,275.1,198,315.2,216.6,321.2z M219.7,286.2c-9.1,5.3-10,14.4-12.4,15.8c-1.6-0.6-1.7-1.8-1.8-3.9c-0.1-4.3,1.6-8.7,4.3-11.6
		c2.3-2.5,10-7.4,14.9-4.7C224.8,284.5,221.9,284.9,219.7,286.2z"/>
	<path fill="#E8D6BF" d="M327.9,420.8c14.9-6,25.9-17.5,31.9-33c24.9-64.2-32.6-70-68.4-113.3c-7.7-9.3-13.6-19.1-17.2-31.5
		c-2.4-8.2-4.2-20.5-10.5-1.6c-1.3,4-2.5,7.9-3.8,12c-1.8,5.7-3.9,12-6.6,17.3c-1.1,2-2.3,3.5-3,5.4c5.5-1.2,14.6,0.1,20.4,1.2
		c5.9,1.1,4.9,0.6,4.8,2.4c-1.4,0.8-14-1.6-17.1-1.7c-11.2-0.5-14.7,2-17.6,2l-0.8,0.9c25,13.7-3.1,47.9-23.6,42.5
		c-9-2.4-12.3-11-14.8-14.5c-2.3,4.4-0.4,22.2,1,27.4c2.2,8.4,6,14.8,10.3,20c4.4,5.2,11.2,10.1,17.4,12.9
		c28.9,12.8,71-0.1,97.3-13.7l14.9-8.1c1.6-0.9,3.5-2.6,5.1-2c0.6,1.5-0.9,3.1-1.8,4.4c-7.3,10.4-13.5,16.8-23.4,24.8
		c-24.7,19.9-54.9,24.1-80.4,4.3c-3.1-2.4-5.5-5.3-7.6-6c-9.1-3.3-14.4-6.4-21.1-13.1l-3.8-3.8c0.4,15.8,11.2,34.2,21.4,43.4
		c10.4,9.4,21.2,20.3,39.8,25.1C287.8,428.9,312.6,427,327.9,420.8z M268.9,309.8c-2.2,0.9-4.2-0.3-4.9-1.9c-1.1-2.6,0.3-3.9,2-4.7
		C270.5,301.3,272.9,308.2,268.9,309.8z M275.4,329.9c-4.6,1.6-7.4-4.7-2.7-6.7C277.3,321.2,279.6,328.4,275.4,329.9z M291.5,317.4
		c-2.3,0.9-4.2-0.4-4.8-1.9c-1-2.3-0.1-3.8,1.8-4.7C293.4,308.6,295.7,315.8,291.5,317.4z M376.2,687.2
		c-4.2,11.5-8.3,23.1-11.6,35.3c-2.6,9.4-4.8,26-19.5,27c-7.4,0.5-15.5,0.4-22.9,0.5c-7.9,0.2-15.4,1.7-20.3-3
		c-6.3-6.1-7.5-18.2-7.4-27.5c0-3.6,1-9.3-0.1-10.8c-1.6,0.2-1.1-0.6-1.6,1.4c-0.8,3.2-0.3,16.3,0,19.1c1.2,10.4,2.5,10.3,5.4,17.2
		c-9.8,4.9-17.1-0.2-20-8.3c-4.6-13,1.4-24.5,0.9-27.3c-2.3,0-2.2,1.1-2.8,3.3c-1.4,4.9-2.3,9.9-2,15.1c0.6,10.4,3.2,11.6,5.9,16.6
		c-8.3-0.8-13-14.2-13.7-22.4c-2.7-32.6,36.7-33.3,57.9-27.6c6.4,1.7,11.3,5.4,12.1,4.6c2.7-2.6-11.3-6.7-12.3-6.9
		c-5.6-1.4-11.6-2.4-17.7-2.5c-0.3-2.4,5.3-35.3,6.2-40.5c0.9-5.7,0.4-7.1,2.9-9c2.2-1.7,4.4-3.1,7.3-4.2
		c23-8.8,47.9,14.4,56.6,33.3c2,4.3,1.4,4-0.2,8.2C378.3,681.6,377.2,684.4,376.2,687.2z M574.8,630c1,9.2,6.1,79.9,3.9,87.7
		c-1.4,5.1-4.2,8.3-8.5,9.9c-5.1,2-27.6,2.5-34.6,2.4c-14.3,0-13.7-20.5-11-30.6c1.6-6,6.2-8.5,3.9-10c-2.1-1.4-5.2,6.8-5.7,8.3
		c-3,10.5-2.8,19.8,1.9,29.3c-12.2,0.1-13.2-16.3-12.3-25.7c0.5-6.2,2.4-10.2,0.1-9.9c-2.7,0.3-2.5,12.7-2.5,15.7
		c0,11,3.7,14.3,3,16c-9.1,3.1-9.5-12.1-9.4-18.9c0.4-42.4,52.9-16,55.1-19.5c2.6-3.9-21-7.9-31.2-8l-3.9-16
		c13,1.2,24.1-2.1,32.7-7.9C570.2,643.4,571.1,634.7,574.8,630z M488.1,626.8c2.1,2.6,7.9,31.2,8.9,36.8c1.9,10.7,1.9,10.4-3.4,17.4
		c-6.6,8.8-14.4,16.3-24.1,21.6c-2.9,1.6-12.5,6.3-16.5,5.4c-4.6-1-8.3-7.9-10-12.6c-1.1-2.9-1.9-5.8-2.5-9.1c-0.8-4.6,0-9.2-1.2-10
		c-3.6-1.6-0.3,14,0.3,16c2.4,8.3,4.1,8.8,6.8,14c-16.6,5-27.3-13.4-23.3-28.5c4.4-16.9,18.7-17.2,33-16.6c2.4,0.1,4.7,0.9,4.9-1.4
		c-2.5-2-16.9-0.7-20.8-0.3l-10-17.7c8.3,0,14.5-1.1,21.7-3.5c4.8-1.6,13.4-5.7,16.1-8.5C484.2,634.7,487.2,627.3,488.1,626.8z
		 M397.5,641.8c-0.1,9.4-2.9,46.5-3.5,56.2c-0.5,8.3,0.1,21.4-5,25.8c-3.5,3-17.4,5.9-23.4,6.8C367.9,714.5,396.8,642.5,397.5,641.8
		z"/>
	<path fill="#A70102" d="M250.4,376.2c3.9,0.4,7.3,0.3,11.2,0.4l-1.2,1.2c-5.1,4.6-2.4,2.6-5.8,6.2c-2.2-0.4-9.1-5.2-11.1-6.8
		c-0.8-0.7-2.2-2.1-2.7-2.4C242.5,374.6,248,375.9,250.4,376.2z"/>
	<path fill="#F69777" d="M264.6,377.6c6.7-3.7,29.9-1.7,68.1-22.4c2.4-1.3,7.7-4.5,9.9-5.2c-1.5,3.8-8,10.3-11.1,13.5
		c-12,12.6-29.4,23.6-47.2,25.8c-12.2,1.5-17.9-0.8-27.7-4C258,382.4,261.6,379.3,264.6,377.6z"/>
	<path fill="#CE7D32" d="M372.7,149.9c-20.5,1.6-37,11.2-47.9,27.5c-15.6,23.5-24.2,61.4-14.5,90.2c1.5,4.5,3.7,9.4,5.8,13
		c13.3,22,35.1,33.8,61.7,32.1c24.5-1.6,39.9-11.1,50.5-24.5c10.8-13.6,16.8-37.3,15.2-59.5c-1.1-14.8-5.2-27.6-11.3-40.2
		c-0.4-0.9-0.3-0.7-0.7-1.4C420.5,167.2,402.7,147.6,372.7,149.9z M388,162.2c2.7,1.8,11.2,9.2,11.2,13.1c-1.9,0.2-6.1-2.9-8.4-3.9
		c-9.9-4.4-14.5-2.6-20.5-4.3C359.7,164.1,372.4,152,388,162.2z M409.4,256.1c-2.3,8.8,7.9,39.7-36,42.1c-23.6,1.3-51-1.9-53.4-24.8
		c-0.7-3.8-0.2-16,0.6-20c2.8-15.4,13.6-27.2,28.5-33.4c14.3-5.9,33.6-2.4,43.1,8.2c2,2.2,3.3,6.1,10.7,2.9c2.9-1.2,3.8-3.2,6.6-4
		c-0.4,7-4.9,7.4-6.4,10.6c-1.2,2.5,0,4.5,2.8,4.7c3.1,0.2,4.3-2.5,6.2-3.5c-0.2,8.6-6.1,6-5.3,11.1c3.5,2.4,5,0.6,8.6,0.3
		C415,253.1,411.9,255.3,409.4,256.1z M234.6,117.2c-9.9,0.9-19,0.5-15.5-11.3c3.9-13,17.5-22,31.5-26.5c12.2-3.9,26.3-4.2,39.2-2.1
		c2.7,0.4,9.7,2.4,11.4,1.9c-0.1-2.4-0.5-1.9-3.2-2.5l-13-2.3c-6.3-0.7-13.6-0.1-19.4-1.1c-18.7-3.3-20.4-14.8-11.4-19.8
		c13.4-7.4,42.9-0.4,56.4,10.1c3.3,2.5,3.4,4.5,5.7,4.2c0.6-1.9-0.4-2.2-1.5-3.2c-2-1.9-4.2-6-5-9.1c-3.4-14,9.4-18.9,17.2-8.6
		c2.6,3.5,4.3,8.2,6,12.8c11.8,32.6,31.7,36.7,34.9,40.3c-1.8,0.9-4.9,1.7-7,2.5c-2.3,0.9-4,1.8-6.2,2.8
		c-15,7.1-33.5,24.5-54.5,35.1c-4.6,2.3-21.4,10.2-26.7,7.3c0.7-3.6,3.9-2.7,4-5.5c-4.2-2.5-19.9,7.7-26.3,7.7
		c-3.4,0-3.9-1.8-3.8-5.2c0-2.5,0.6-5,1.3-7.3c6.3-21.1,32.7-26.5,53.4-24.8c2.2,0.2,6,1.3,7.7,0.1c-0.2-1.6-0.2-1.3-2-1.9
		C289.3,105,255.2,115.4,234.6,117.2z M192.6,362c-8.6,0.3-14.6-4.3-18.8-8.3c-3.5-3.3-9.6-10.8-12.2-15.1
		c-6.5-10.7-6.7-21.2-4.1-33.8c0.5-2.3,2.9-9.3,1.9-10.9c-1.6,0-1.4,0.1-1.9,1.8l-2.2,8.5c-0.8,3.4-1.6,8.5-3.4,10.5
		c-8,0.2-8.9-24.4-8.9-29c0-28.5,10.8-63,22.4-83.7c5.9-10.5,13.9-22.2,22.2-30.8c4-4.1,9.6-9.1,14-12.5c3.8-2.9,11-8,15.8-10
		c-0.6,3-2.9,8.3-4.1,11.9c-4.1,12.6-7.2,25.9-9.4,39.2c-1.6,9.4-2.8,18.9-3.8,28.6c-1.8,16.5-0.1,11.2-4.5,28
		c-5.9,22.4-17.3,59.2-12.4,82.8C185.8,352.4,192.3,360.1,192.6,362z M558.5,481.1c5.3-5.2,5.6-8.5,6.2-17.7
		c0.5-7.3,0.7-15.1,1.5-22.4c1.8,0.1,9.6,4.9,11.3,6.1c12.5,8.7,17.2,18.6,16.9,35.9c-0.3,17.9-8.3,51.7,5.7,60.1
		c-2.4,2.5,0,0-2.4,2.5c-9.9,10.4-22.5,11.5-33.8,0.5c-3.8-3.7-3.7-5.9-5.6-12.3c-3.1-9.9-8.2-16.8-5.3-29.1
		c1.1-4.5,3.6-9.4,5.9-12.1c6.5-7.6,9.5-5,9.5-8.2c-2.2-1.1-6.3,2.2-7.8,3.5c-2.1,1.8-3.9,3.7-5.5,6.4c-3.7,5.9-4.9,11.1-5.1,19.2
		c0,0-5.2-6.6-6.2-7.8c-1.9-2.2-4.5-4.3-7-6.2c-2.7-2-5.3-3.5-8.5-5.2c-10.2-5.2-8.7-1.3-8.8-10
		C533.9,485.4,548.2,491.2,558.5,481.1z M641,259.3c5.3,16,11,40,6.3,57.3c-1.2,4.5-4.6,12.2-8.2,13.8c-0.3-19.8-4.5-37.3-11.4-55.3
		c-1.7-4.4-1.7-5.7-3.7-5.7c-1.1,1.8,1.2,5.2,1.9,7.1c6.9,17.9,11,37.1,11,56.6c0,23.2-6.7,46.6-19.3,57.7
		c-7.7,6.7-15.4,9.1-28.6,10c-12.2,0.8-22.2-1.5-31.2-6.7c-8.5-4.9-14.4-11.3-20-18.5c-2.4-3.2-13.1-20.2-13.7-24.6
		c2.7-1.2,5.3-1.4,8.2-2.9c15.6-7.7,21.6-28.6,21.3-45.4c0-3.6,0.3-8.1-1.8-8.8c-1.4,1-0.8,2-0.6,4.1c0.5,5.1,0.2,10.9-0.6,15.9
		c-2.4,15.8-11,34.3-30.1,35.2c-21.2,1-34.6-27.3-41.3-45.5c-8.4-22.6-13.2-48.3-11.6-74.7c0.8-13.1,2.2-26.2,5-38.7
		c1.4-6.1,2.9-11.3,4.8-16.9l5.9-13.4c0.2-0.7,0.2-0.3,0.2-1c0-0.9,0-0.5-0.3-1c-1.5-0.3-1.6,0.4-2.2,1.8l-4.2,9.5
		c-0.8-1.4-2.2-8.7-3-11.1l-4.2-9.7c7,0.9,8.3-0.1,14.5-0.6c1,1.6,3.2,3.7,4.6,5.1c2.1-0.2,6.2-2,8.9-2.6
		c21.8-4.9,45.5,0.8,64.9,9.6C602,178,627.8,219.1,641,259.3z M207.2,240.5c1.3,17.3,1.2,7-1.1,21.4c-1.4,9.2-1.6,12.2,3.2,18.2
		c-2.2,2.1-4,3.3-5.7,6.1c-2.7,4.3-2.6,6.8-3.5,8.2c-2.4-1.2-3.6-2.9-5.3-5.2c-0.8-1.1-3.5-5.1-3.6-6.6
		c-0.2-1.9,22.4-87.9,25.4-98.3c0.9-3.2,1.8-5,3.6-6.7l5.3-5.2c1.2-0.3,3.4-2.2,4.6-3.2c1.2-1,3.5-2.8,2.1-5.2
		c-2.2-1.1-6.9,0.5-7.9,1.6l-1.9,0.6c0.4-2.2,3.2-11,4.3-12.4c20.3-2,23.4,32,24.2,47.5c0.1,2.1,1.2,21.5-0.5,23.4
		c-0.4-3.4-4.7-7.5-6.7-9c-7.7-5.8-15.1-5.3-22.4,0.6c-4.6,3.7-2.6,4.7-11.1,2.8c0.2,0.8,1.3,3.1,1.8,3.9c1.9,3,2.7,0.1-0.8,6.7
		c-1.5,0.1-2-0.4-3.1-0.9c0.4,2.4,0.7,2.4,2,3.9l-1.5,4.3c-1.4,0-2.1-0.3-3-0.8c0.1,1,0.2,1.9,0.6,2.8
		C206.6,240.3,206.6,240.3,207.2,240.5z"/>
	<path fill="#F5BA6D" d="M427.9,639.6c-0.9-1.7-5.8-9.4-5.7-10.8c6.9-0.3,13.9-1,20.8-1.4c5.7-0.4,7.4-1.3,9.3,0.7
		c4.1,4.4,4.1,2.9,6.3,4.6C450.2,637,439.4,640.4,427.9,639.6z M413.3,603.1c9.8-7.3,14.5-19.9,8.7-35.6c-4.4-12-13.2-21-24.3-25.7
		c-22.5-9.6-57.8-0.9-74.3,17.5c-3.6,4-7.2,9.1-8.9,15.9c-2.5,10.2,2.4,11.6,4,19.8c1.6,8.3,0.6,14.8-0.7,22.8
		c-0.9,5.2-3.3,17.1-3.2,21.7c6.7-3.8,11.3-6.9,21.1-6.2c8.3,0.7,15.1,4,20.6,7.6c8,5.1,16.1,13.5,21,21.3c1.9,3,3.1,6,4.9,8.9
		c3.7-7.9,10.1-25.5,14.2-35.3l11-26.1C409.7,604.5,409.3,606,413.3,603.1z M519.5,492.9l0.1,8.1l-7.5,0c2.2,6.2,4.7,7,2.1,14.4
		c9.8,2.9,9.3,20.7,6.5,24.7l0.9,0.8c2.9,2.5,3.7,4,3.7,9c0.1,5.3,0,8.7-3.6,11.2c3.1,4.7,5,18.8-1.7,22.7l-2.7,1.5
		c4,3.6,3.2,10.6,1.4,16.3c-1.7,5.5-4.8,9.3-11.1,10c0.5,5.9,5.3,16.6,7.6,22.7l7.5,22.4c10.1,1.6,19.7-0.8,27.6-4.8
		c10.3-5.2,20.5-16.1,23.5-27.3c1.2-4.2-5.1-39.5-6.1-44.5c-4.2-21.8-11.6-59.5-26.9-74.7C537.3,502.1,526.3,494.2,519.5,492.9z
		 M199.7,296.8c-2.3-1.1-4-2.7-5.3-4.5c-1.2-1.6-2.8-4.4-4.1-6c-1.9,3.1-4.6,21.7-5.1,26.7c-1,11.1-1.9,19.1,1,29.7
		c2.3,8.4,6.5,15.3,10.8,21.2c3.1,4.2,12,13.5,16.8,15.9c-2.3-7.4-6.4-12.5-6.4-24.4c0-3.3,0.1-2.8-1.3-5.2
		c-5.1-8.6-7.5-19.4-7.6-29.8c0-4,0.3-7.9,0.8-11.8C200.6,299.9,199.7,304.5,199.7,296.8z M250.3,261.8l-1.3,11.4
		c3-2.9,7.1-14.9,8.7-19.9c2.2-6.7,4.4-15.7,7.6-21c2.2-3.7,5.9-4.3,8,0.2c1.5,3.2,2.3,7.5,3.4,11.1c7.1,22.6,20,34.8,36.6,49.2
		c19,16.3,51,33.1,54.5,59.9c2,14.9-4.6,35.1-10.8,45.7c-15.1,25.7-43.7,33.8-83.3,29.1l1,30.8c41.8-6.6,62.9-8.6,103.4-19.9
		c3.8-1.1,10.7-2.7,14-4.2l0-5.5c-0.7-1.3-0.4-4-0.9-5.7l-4.8,0.3c-1.5-0.2-2.4,0.1-3.8,0c-2-0.1-1.9,0-2.1-1.9
		c1.4-0.6,12.7-0.9,15.7-1.2c17-2,38.3-8.2,50.6-19.4c1.9-1.7,1.8-12.2,2-15.5c0.8-10.8,1.7-21.6,2.7-32.4
		c0.9-10.5,1.9-21.1,2.9-31.6c0.6-6.1,3-28,2.7-32.4c-0.6-12-6.6-43.2-10.5-57.1l-0.8-1.9c-0.4,11.7-0.2,20.2-2.9,31.4
		c-6.3,25.9-21.9,45.4-51,51.9c-43.5,9.7-75.6-15-84.7-47.8c-8.1-29-0.1-70.3,19.5-93.8c2.3-2.8,5.8-6.6,8.6-8.9
		c6.4-5,12.5-9.2,22.1-12.1c9.1-2.7,20.5-3.9,30.2-2c15,2.9,27.6,12.2,36.3,23.4c1.3,1.6,2.5,3.5,3.8,5c-2.7-10.1-19.7-36.3-26.1-45
		c-8-11-12.2-14.7-21.4-23.4c-1.5-1.5-3-2.6-4.9-4c-1.7-1.3-3.1-3-6.1-2.3c-28.6,7.3-51.3,38.4-86.8,47.7
		c-4.9,1.3-12.5,2.6-10.9-4.2c-8.1,1.2-32.1,18.2-25.5-7.4c3.5-13.4,12.4-18.5,23.7-23.9c-4.1,0-12.8,1.8-17.3,2.6
		c-6.2,1-4.9,0.1-11.2,8.9c-2.2,3-13.9,21.9-14,25.8c15.3,0.1,20.5,15.6,23.1,29.8c1.5,7.9,2.1,15.9,2.4,24.2
		c0.2,5.3,0.6,24.2-0.6,26.5C253.4,235.4,251.1,257.2,250.3,261.8z"/>
	<path fill="#CDA9C6" d="M393.2,436.2l7.9-2.3c4.4-0.1,5.2,2.4,6.9,5.8c9.1,18.5,6.8,18.2-3.3,21.6c-12.4,4.1-24.5,7.8-37.2,11.4
		c-25.5,7.3-53.6,13-81.4,15.9c-8.9,0.9-14.1,1.8-15.6-7.4c-3.9-22.9,1.4-20.8,22.7-23.5C322.3,454,366.2,445.3,393.2,436.2z
		 M473.3,395.9c3.9-0.9,13.1-0.1,17,0.9c4.9,1.2,9.1,3.6,11,7.2c-4.4-0.3-8.6-0.6-13-0.7c-2.3-0.1-11.7-1.1-9.8,1.4
		c0.6,0.6-0.1,0.2,0.9,0.5l14.8,0.5c14.2,0.8,28.6,3,42,7.1c9.6,2.9,16.3,5.6,21.5,11.3c7.8,8.5,6.5,12.9,5.6,26.3
		c-0.6,8.8,0.1,22.2-5.1,27.8c-6.9,7.3-13.8,7.3-25.7,5.5c-9.6-1.4-53.6-7.9-53.6-7.9c-1.9-0.2-1.7-0.5-2.6,0.6
		c0.4,1.9,1.9,1.5,4.1,1.8l36.3,5.5l0.8,15.1c-2.4-0.1-6,0.3-7.6-0.9c-6.3-4.5-5.2-2.3-6.5-5.9c-4.6-12.9-20.4-10.7-25.2,0.6
		c-1.2-0.4-2.9-2.2-4-3c-2-1.5-1.9-1.7-1.9-4.7l0-38.4C472.4,438.5,472.4,400.9,473.3,395.9z M490.5,439.1
		c-1.4,7.4-5.5,9.3-4.8,12.4c2.4-0.5,3.4-3.1,4.4-5.1c3.5-6.9,3.5-12.7,1.8-20.1c-0.6-2.6-0.3-2.7-2.5-2.8
		C489,425.5,491.6,433.2,490.5,439.1z M483.8,454c-2.1-0.5-5.9-2.2-7.6-1c0.3,2,1.4,1.8,6.2,2.9c18.2,4.4,38.9,9.5,57.5,9.6
		c11.1,0,21.6-3.7,14.7-15.6c-10.2-17.6-51.7-33.4-75.4-32.1c-2.2,0.1-2.3-0.1-2.4,1.6c1.3,1.1,3.7,0.5,6.3,0.5l10.5,0.9
		c0.9,0.1,2.3,0.3,3.6,0.6c11.5,2.1,26.1,7.4,35.7,13c7.3,4.2,13.9,8.7,18.2,14.2c1.9,2.4,5.2,8.4,1.9,11.6
		C544.1,469,496.2,457,483.8,454z M417.3,449.3c2.6,4.1,6.7,8.6,10.6,11.2c3.4,2.2,11.3,5.6,16.6,4.8l3-62.1
		c-9.9,6.9-11.1,8.1-23.2,12.8c-8.1,3.1-20.6,5.9-30.2,6.6l0.1,3.2l2,0.9l0.9-0.2C407.2,429.4,410.9,439.3,417.3,449.3z M270,493.6
		c1,6.9,0.5,6.6-1,13.1c-4,17.1-9.3,32.5-17.5,45.3c-1.6,2.5-1.7,2.6-5.1,2.9c-2.4,0.2-4.7,0.2-7.1-0.3c-5.5-1.1-6.6-2.2-8.6-7.2
		c-2.7-7.1-5-17.6-5.7-25.9c-0.8-10-0.3-19.9,1.3-29.6c0.6-3.9,0.3-3.3,2.4-5.7l10.3-12.7c2.5-0.1,15.4-0.4,17.1,0.1
		c1.2,0.3,8.2,6.3,7.1,2.4c-0.3-1-1.4-1.2-2-1.8c-2.7-2.1-3.5-21.8,11.2-19.3c0.1,5.3,0.9,3.3-2.1,5.9
		C264,466.4,268.6,483.9,270,493.6z M249.8,527.9c3.2-7.5,8.6-26.1,8.6-26.2c1.6-9.7-1.1-2.2-2.1-12.9c-0.3-3.4-1.5-3.8-3.3-5.4
		c-4.5-4.1-11.9-5.1-16.5-2.9c-1.6,0.8-1,0.7-1.7,2.6c-0.7,1.9-2.1,4.3-3.2,5.3c-3.1,2.8-2.3-0.3-3.2,5.6c0.1,0.1-0.6,5.7-0.6,5.9
		c-0.9,9.1-0.5,13.3,0.6,24.3c0.6,6.2,4.3,17.6,8,21C241.7,542,247.1,534.4,249.8,527.9z M261.5,488.9c-0.3-1.7-0.6-3.3-0.9-5
		c-0.1-0.7-0.3-1.8-0.4-2.5c-0.5-2-0.1-1.6-1.6-2c-2,1.9,2.6,16.1,2.5,19.8c-0.4,9.9-7.2,27.4-12.3,35.9l-7.2,10.7
		c-0.9,1.2-2.2,2.1-1.8,3.9c2.4,0,4-3.1,6.1-6c1.6-2.3,3.3-4.9,4.8-7.6c2.9-5.2,5.7-10.6,7.8-16.9c1.8-5.2,4.4-13.8,4.8-19.6
		C263.4,497.2,262,491.5,261.5,488.9z"/>
	<path fill="#B75480" d="M214.8,182.3c-2.5,8.3-11.4,40.6-11.6,43.2c0.5-9.3,2.3-22,3.7-29.8c1.9-10.5,4.4-20.7,7.3-30.6
		c3-10,6.6-18.9,10.7-27.7c2.1-4.5,4.4-8.5,6.7-12.5c3.4-5.9,2.3-5.8,12.4-6.5C224.3,143.7,219.8,166,214.8,182.3z M346.7,80.7
		c-2.7-3.1-7.2-10-8.3-14c5.4,1.3,14.3,5.5,19,8c15.6,8.1,25.4,17.3,36.3,29.9c2.1,2.4,4.9,7.1,6.1,6.1c2.3-1.9-16.8-25-32.4-32.8
		c1.5-2.5,4.9-4.8,8-6.2c4.8-2.2,6.8-1.2,11.8-1.1c1.9-2.4,4.6-7.6,6.8-9.7c2.6,1.1,19.1,11.2,23.1,13.5l68.3,40.6
		c0.1,2.6-1.4,7.4-0.3,9.3c0.4,0.7,1.8,2.1,2.5,3.1c4.2,6,6.1,13.6-1.3,17.2c-11.3,5.5-24.5,0-33.3-4.8c-12.7-7-46-37.8-48.7-34.4
		c-1.1,1.4,1.9,3,2.9,3.8c8.7,7.1,20.7,16.6,29.4,22.7c5.9,4.1,11.5,8,18.4,11.5c11.1,5.6,11.5,2.2,15.2,13.1
		c1.3,3.8,2.5,7.3,4.1,12.5c1.5,4.7-0.3,6.4-2,11.9c-2.4,7.9-3.7,15.3-4.9,23.8c-3.1,22.1-4.9,36.7-0.7,58
		c0.8,4.1,2.3,12.8,3.5,17.9c3.9,17,11.9,40.2,22,53.5c2,2.7,1.2,5.1,0.9,9.2c-0.5,6.3-1.3,12.7-2.6,18.6
		c-1.3,5.5-4.5,20.8-16.8,26.4c0.3-5.9,6-62.6,3.9-63.5c-1.7-0.8-1.6,0.6-1.8,2.9l-1.3,12.5c-5.6,60.2-4.3,104.1-4.3,158
		c0,18.6,3,24.2-12.2,23.7c-7.3-0.3-9.9-0.4-11-7.5c-0.8-4.9-0.6-12.2-0.6-17.5c0-70.5,6.9-134,13-203.5c0.8-8.6-2.2-23-3.8-31.5
		c-2.5-13.6-10.9-45.3-14.6-57.8c-1.7-5.6-5.9-16.6-8.2-21.9c-8.6-19.8-20-40.5-33.1-56.5c-7.6-9.3-7.1-8-14.6-15.7
		c-10.1-10.3-16.5-10.9-26.7-18.1C354.1,88.5,350.2,84.8,346.7,80.7z M464.3,260.7c0-0.1,0-0.1,0-0.2c0,0,0,0-0.1,0.1
		c-0.4-1.1-0.6,0.7,0,0C464.3,260.6,464.3,260.7,464.3,260.7z M464.5,261.2C464.5,260.9,464.3,260.1,464.5,261.2L464.5,261.2z
		 M448.2,149.9c10.4,24.3,13.7,47.7,16.1,47c3.9-1.1-8.3-35.6-10.9-42.4c-1.2-3.1-5.4-11.8-7-10.9
		C444.5,144.6,447.5,148.1,448.2,149.9z M409.3,123.2c-0.9,1,7.4,13.5,9.6,17.3c6.5,11.4,12.7,24.4,17.5,36.9
		c1,2.5,11.1,29.6,12.8,35.2c6,20.6,13.2,50.8,15.5,71.9c0.8,6.8,0,13.6-0.3,20.5c0,0-12.2,207.7-9.5,207.6c2-0.1,2.2-9.5,2.3-11.6
		l7.8-176.6c0.5-10.5,1.1-20.8,1.6-31.3c0.5-10.1-1.5-19.6-3.4-29.1c-1.2-6-2.8-13.8-4.3-20.3c-4.6-19.7-9.4-37.6-16.3-56.6
		c-5.5-15.3-14.2-36.6-22.9-50.1C417.9,134.1,410.6,121.9,409.3,123.2z M410,91.6c22.6,16.4,38.4,24.7,65.4,32.4
		c1.7,0.5,3.5,1.4,4,0c0.7-1.9-1.6-1.6-5.9-2.8c-2.2-0.6-14.8-5.1-18.9-6.7c-15.2-6.2-30.7-15.8-43.3-25.4
		c-3.2-2.4-18.1-16.2-19.2-14.7C390,76.8,403.6,86.9,410,91.6z M511,561.9c-2.1,0.1-2.1,0.6-2.3-0.8c-0.2-1.5,0.5-1.5,4.7-1.6
		c6.4-0.2,9.7,1.3,9.7-8.7c0-14.5-13.3-5-15.6-9.3c-1.9-3.6,8.9-0.9,11.4-2.7c2.5-1.8,2.3-18-4.4-21.1c-5.1-2.3-10.4,2.7-12.3,0.3
		c-2.7-3.5,8-1.9,10.1-4.2c2.8-2.9-1.8-17-10.5-17.2c-5.2-0.2-8.8,4.9-10.4,3.6c-1.3-1.1,3.6-5.9,10.1-5.7c-2-12.5-18.1-11.3-21.9,0
		c4.3,5.3,6.4,6.2,11.5,14.1c12.6,19.2,15.2,40.1,12.2,63.8c-3.7,29.1-14.7,41.8-39.7,50.9c-2.3,0.8-8.3,2.3-9.9,3.3
		c2.6,2.2,5.7,6.8,11.6,2.3c-0.6-2.4-1.7-4.6,0.6-3.2c5.4,3.5,16.6,4.4,18.4,1.2c-1.1-0.9-7.7-4.6-6.2-6.1c2.9-2.9,6.2,6.1,16.1,2.4
		c4.5-1.7,14.8-6,11.1-10.7c-2-2.4-9-0.1-7.8-3c1.5-3.3,14.5,5.8,18.9-8c6.2-19.6-11.8-14.4-10.1-16.4c1.7-2.2,5.5-0.2,11-2
		c3.7-1.2,4.9-4.1,4.8-9C521.8,561.5,521.2,561.3,511,561.9z M216.5,467.6c0.2,3.4,1.7,14.9-0.5,16.4c-2.1,1.3-14.1,1.2-17.3,1
		c-3.1-0.1-5.9,0-6.5-2.8c-0.6-2.4-0.3-112.8-0.2-117.9c2.3-0.4,3,0.3,3.5,1.1c6.5,9.4,16,15.9,16,15.9
		C212.2,382.4,216,457,216.5,467.6z M201.8,454.3c-0.4-18.8-1.5-75.1-1.5-75.1c-0.2-1.6,0-1.5-1.6-1.7c-1.5,2-0.9,25.8-0.8,29.9
		c0,0,0.9,48.3,1.2,64.4c0,2.5,0.3,7.7,2.4,8C203,478.2,201.9,457.9,201.8,454.3z M462.1,621.6c-10.6,3.3-16,3.3-29,4.3
		c-9.6,0.7-21.7,2.2-31,2.1c0.4-1.6,8-19.8,8.9-20.7c0.4-0.4,4.4-3,5.7-4.2c8.6-7.6,11.8-16.5,9.3-28.9c-4-20.2-19.7-35-41-38
		c-21.6-3-49.2,7.1-60,18.3c-1.1,1.1-1.6,1.5-2.6,2.5c-5.2,5.2-11,15.9-10.6,24.2c0.5,11,7.6,5.6,4.5,33.5
		c-4.9-0.8-13.8-5.3-17.3-7.2c-15.1-8.4-26.4-22.5-32.4-40.2c-1.8-5.1-7.1-24.7-4.7-30.1c3.4-7.4,10.1-29.8,11.1-37.1
		c0.4-2.7-1-7.6-1.2-10.6c4.7,5,26.5,0.4,30.1-0.1c32.2-4.1,57.6-11,86.6-20.3c6-1.9,11.8-3.8,17.8-5.7c11-3.7,10.5-5.3,9-12.8
		c0.8,0.7,0.8,0.7,1.5,1.7c6.9,9.6,13.7,14.8,26.8,15.5l-0.5,28.7c0,7.7,0.1,22,5.4,25.6c3,2.1,9,2.1,12.9,1.9
		c4.6-0.2,8-1.3,9.9-4.4c1.9-3.1,1.1-22.8,1.1-28.1c4.7,2.6,13,12.4,16.5,17.5c4.2,6.1,8.3,14.4,10.5,22.8
		c4.8,17.6,3.6,41.8-2.1,58.6C491.7,606.8,479.6,616.2,462.1,621.6z M304.2,604.2c0-2.2-1.3-2.3-2.9-3.5c-1.1-0.9-2.6-2.2-3.7-3.1
		c-15-13.6-23.6-38.7-26.9-58.8c-0.4-2.6,0-4.4-2.2-4.3c-2.5,4.7,7.8,34.3,11.2,41.5c2.9,5.9,6.7,12.3,10.3,16.6
		C291.8,594.5,300.8,605.2,304.2,604.2z M434.2,552.3c-9.8-22-29.8-37.2-55.5-34c-18.1,2.3-34.6,9.3-49.2,18.5
		c-4.2,2.7-9.7,6.7-12.9,9.7c-6.8,6.5-15.1,14.5-18.2,27c-2.4,9.6-0.3,18.8,6.7,25.1c0.5,0.5,5.7,6.3,5.8,3c0-1.3-4.2-4.5-5.3-5.6
		c-7-7.1-7.2-17.1-3.7-26.2c10.2-26.4,55.5-50.6,86.1-49.7c43.5,1.2,68.2,68,33.9,91.2c-2.4,1.6-4.8,2.4-7.3,3.9
		c-1.9,1.2-1.3,2.6,0.7,2.1c0.6-0.2,3.4-1.7,4.1-2c9.5-5,16.2-13,19.2-25.6C442.1,574.6,439.7,564.7,434.2,552.3z M479.4,589.4
		c4.7-3.6,8-9.2,10.4-16.5c0.6-1.8,1.9-9.5,2.9-10.3c2.8-2.3,4.3,1.8,3.8-9.6c-0.2-3.4-2.1-19.2-7.8-18.5c-8.1,0.9-16,1.8-23.9,2.7
		c-13.8,1.6-7.3-0.6-8.6,17.5l-4.8,21.6c-1.8,7.9-4.9,16.9,5.7,17.1C465.3,593.6,473.9,593.6,479.4,589.4z M459.6,591.2
		c-11.6,0.3-8.6-4.2-4.6-21.5c4.6-20,3.1-9.6,3-29.6l31.5-3.4c4.4,6,4.8,14.3,4.7,22.8c-2.9,1.2-3.9,0.6-4.4,4
		c-1.1,6.4-3,13.2-6.4,18.4C477.5,590.8,472.9,590.8,459.6,591.2z M480.5,565.7c2.2-0.8,4.8-0.6,5.1-3c-1.5-0.9-4.9,0.5-6.8,1.3
		c-2.3,0.9-0.9,0.7-2,2.7c-0.5,1-1.5,1.8-2.8,2c-4.7,0.8-4.2-2.3-5.6-3.8c-0.9-1-2.2-0.8-3.8-0.9c-2.1-0.1-3-0.7-4.1,0.8
		c0.6,1.5,0.5,1.2,2.7,1.4c6.8,0.4,2.7,1.9,7.3,4.2c2,1,4.6,0.5,6.1-0.6C479.2,568,477.7,566.7,480.5,565.7z M239.1,506.2
		c0.9-1.5,1.3-1.1,1.5-2.8c0.1-0.9-0.1-3.6-0.1-4.7c-3.3,1.7-5.4,7.2-5.6,12.5C239.8,510.7,236.8,510,239.1,506.2z M244.8,512.9
		c1,0.5,1.1,0.8,2.3,1.3c1.1-6.2,1.2-8.3-0.9-13.8l-0.4,0.5C242.6,506,245.6,504.5,244.8,512.9z M238.7,516.2l-1.9,3.8
		c1.5,2.2,2.7,3,5.9,1.6l-0.4-4.7L238.7,516.2z M236.3,545.3c-3.6-3.4-7.3-14.8-8-21c-1.1-11-1.5-15.2-0.6-24.3
		c0-0.2,0.7-5.8,0.6-5.9c0.9-6,0.1-2.8,3.2-5.6c1.1-1,2.5-3.4,3.2-5.3c0.7-1.8,0.1-1.8,1.7-2.6c4.6-2.2,12-1.2,16.5,2.9
		c1.8,1.6,2.9,2,3.3,5.4c1.1,10.7,3.7,3.2,2.1,12.9c0,0.1-5.4,18.8-8.6,26.2C247.1,534.4,241.7,542,236.3,545.3z M244,525.5
		c1.7,1.7,4,4.5,5.9,0.5c1.5-3.1,0.6-6.2-0.3-8.9c1.1-1.1,1.3-0.7,2.2-2c0.9-1.2,0.8-2,1.5-3.2c0.8-1.4,1.2-1.1,1.9-2.8
		c0.8-2.3,0.1-1.5,1.4-3.2c0.9-1.6,1-2.2,1.1-4.2c-1.8-0.3-3.7-0.9-5.6-1.3c-3.1-0.7-2.3-0.2-3.7-2.7c-1.9-3.5-1-1.6-1.1-5.8
		c-0.1-2.1-0.8-3.7-2.3-4.1c-2-0.5-3,1.1-3.6,2.9c-1.2,3.5,0.3,1.9-2.4,4c-3.4,2.7-0.8,2-9.6,0.2c-1.5,0.5-1.3,2.1-1,3.8
		c0.1,0.7,0.6,1.5,0.7,2.2c0.3,1.6-0.8,2.8-0.1,4.6c1.6,3.8,0.4,3.9,2.4,7c-1.1,1.7-2.7,3.6-2.7,6.8c0,4.1,1.9,4.7,5.3,3.8
		C237.4,527.3,238.6,528.2,244,525.5z M227.8,274.2c-0.6-0.9-1-1.7-1.5-2.8c-0.9-2-1.6-4.1-2.1-6.4c-2.7-13.4,6.2-30.9,22.1-27.7
		c-1-4.4-3-6.5-4.5-9.5c-10.1,1.6-17.5,9.1-20.7,17.2c-4,10.4-2.2,22,2,31.3l6.4,0.3C228.7,276,228.5,275.5,227.8,274.2z
		 M372.1,296.1c-11.1,0.5-17.1-1.1-23.3-7.1c-2.7-2.7-4.4-4.3-6.6-8.4c-9.6-18.3,2-42.1,24.1-44.1c17.7-1.7,31.2,11.3,33,26.7
		c1.1,9.3-2.6,18.4-7.1,23.3C387.3,291.8,382.6,295.6,372.1,296.1z M392.9,263.7c-2.2-11.2-13.6-21.6-27.9-18.5
		c-11.6,2.5-21.8,13.5-18.5,28.2c2.5,11.2,13.7,21,28,18.2C385.9,289.2,395.6,277.8,392.9,263.7z"/>
	<path fill="#FFFFFF" d="M322.1,264.8c1.9-12.7,5.6-20.5,12.3-27.5c5.8-6,15.3-11.7,27.4-12.8c19.1-1.8,34.1,13.6,41,29
		c1,2.3,1.8,5.1,2.8,7.1c1.8,9.7,2,16.2-3.3,23.6c-3.1,4.2-10.6,9.8-18.4,10.3c11.8-5.4,19.9-21.6,15.8-36.2
		c-3.5-12.5-15.2-23.7-31.3-23.1c-23.8,0.9-38.1,26.5-25.9,47.5c1.7,3,4.1,5.7,6.2,7.5l7.8,5.3c0.1-0.1,0.2,0.2,0.3,0.3
		c-9.5-0.5-19.3-2.6-25.7-7.1C323.7,283.6,321.4,276.7,322.1,264.8z M220.7,227.9c-6.4,8.8-8.2,18.8-9.5,20.7
		c-0.8,4.3-7.6,27.3-0.2,30c0.8,0.3,7.4-1.9,9.7-2.1c-1.4-5.7-3.3-8.8-3.8-15.6c-1.2-15.1,5.8-28.6,19.6-33.8
		c4.3-1.6,2.8-0.8,3.5-1.9C238.9,224.8,230.4,214.6,220.7,227.9z M373.2,253.2c-11.4,2.8-6.8,19.5,4.2,16.4
		C387.5,266.9,384.2,250.5,373.2,253.2z M249,247.8c-4.2-1.2-7,0.4-7.4,4.3c-0.5,4.4,2.2,7,6.7,6.4
		C249.3,256.4,249.5,250.4,249,247.8z M207.4,292.7c-0.8,2.2-1.5,6.2-0.1,8c2.7-6.2,5.2-11.1,10.8-14.8c2.9-1.9,4.7-1.8,5.5-3.6
		C216.2,281.4,209.6,286.6,207.4,292.7z M244,525.5c-5.4,2.7-6.6,1.7-9.8-2.5c-3.4,0.9-5.3,0.3-5.3-3.8c0-3.2,1.7-5.1,2.7-6.8
		c-2.1-3-0.8-3.2-2.4-7c-0.8-1.8,0.3-3,0.1-4.6c-0.1-0.7-0.6-1.4-0.7-2.2c-0.3-1.7-0.5-3.2,1-3.8c8.8,1.8,6.2,2.6,9.6-0.2
		c2.6-2.1,1.1-0.5,2.4-4c0.6-1.7,1.6-3.4,3.6-2.9c1.5,0.4,2.2,2,2.3,4.1c0.1,4.1-0.8,2.3,1.1,5.8c1.4,2.5,0.5,2,3.7,2.7
		c1.8,0.4,3.8,1,5.6,1.3c-0.1,2.1-0.2,2.6-1.1,4.2c-1.3,1.7-0.6,1-1.4,3.2c-0.6,1.7-1.1,1.4-1.9,2.8c-0.7,1.2-0.6,2-1.5,3.2
		c-1,1.3-1.1,0.9-2.2,2c0.9,2.7,1.8,5.8,0.3,8.9C248,530.1,245.7,527.3,244,525.5z M244.8,512.9c1,0.5,1.1,0.8,2.3,1.3
		c1.1-6.2,1.2-8.3-0.9-13.8l-0.4,0.5C242.6,506,245.6,504.5,244.8,512.9z M239.1,506.2c0.9-1.5,1.3-1.1,1.5-2.8
		c0.1-0.9-0.1-3.6-0.1-4.7c-3.3,1.7-5.4,7.2-5.6,12.5C239.8,510.7,236.8,510,239.1,506.2z M242.6,521.6l-0.4-4.7l-3.6-0.7l-1.9,3.8
		C238.2,522.2,239.4,523,242.6,521.6z"/>
</g>
</svg>
